<?xml version="1.0" standalone="no"?>
<!DOCTYPE svg PUBLIC "-//W3C//DTD SVG 20010904//EN"
 "http://www.w3.org/TR/2001/REC-SVG-20010904/DTD/svg10.dtd">
<svg version="1.0" xmlns="http://www.w3.org/2000/svg"
 width="1024.000000pt" height="1024.000000pt" viewBox="0 0 1024.000000 1024.000000"
 preserveAspectRatio="xMidYMid meet">
<metadata>
Created by potrace 1.11, written by Peter Selinger 2001-2013
</metadata>
<g transform="translate(0.000000,1024.000000) scale(0.100000,-0.100000)"
fill="#000000" stroke="none">
<path d="M0 5120 l0 -5120 5120 0 5120 0 0 5120 0 5120 -5120 0 -5120 0 0
-5120z m4200 3316 c30 -8 89 -17 130 -21 41 -4 80 -12 87 -17 7 -5 45 -16 85
-25 40 -8 76 -19 79 -24 3 -5 31 -14 63 -19 32 -5 64 -14 70 -19 7 -6 35 -15
63 -21 28 -6 54 -18 57 -26 3 -8 20 -14 43 -14 21 -1 56 -8 78 -16 22 -9 63
-21 90 -26 28 -6 52 -14 55 -18 12 -16 51 -30 84 -30 20 0 36 -4 36 -9 0 -12
55 -31 88 -31 13 0 39 -8 56 -19 17 -10 55 -21 85 -24 29 -4 60 -12 69 -19 11
-10 80 -14 265 -16 234 -3 253 -2 298 17 26 12 60 21 74 21 15 0 38 9 52 20
14 11 36 20 49 20 13 0 33 9 44 20 11 11 28 20 39 20 10 0 29 8 42 18 13 9 47
28 74 40 101 48 115 55 115 64 0 4 11 8 24 8 13 0 34 8 47 19 14 10 49 20 82
24 32 3 64 11 72 17 48 40 575 31 575 -10 0 -4 19 -10 42 -14 76 -12 25 -29
-114 -37 -73 -4 -153 -14 -178 -22 -25 -8 -83 -18 -130 -22 -46 -3 -96 -13
-111 -21 -15 -7 -45 -16 -67 -20 -23 -3 -49 -15 -58 -25 -9 -11 -30 -19 -46
-19 -15 0 -37 -9 -48 -20 -11 -11 -29 -20 -39 -20 -18 0 -43 -17 -92 -62 -10
-10 -30 -20 -45 -24 -15 -4 -29 -15 -31 -25 -3 -11 -14 -19 -25 -19 -11 0 -22
-9 -25 -20 -3 -11 -14 -20 -23 -20 -10 0 -22 -9 -25 -20 -3 -11 -12 -20 -20
-20 -7 0 -26 -10 -42 -23 -15 -13 -36 -26 -45 -30 -10 -3 -18 -13 -18 -22 0
-8 -7 -15 -16 -15 -9 0 -18 -9 -21 -20 -3 -11 -13 -20 -23 -20 -11 0 -20 -10
-24 -25 -4 -14 -13 -25 -21 -25 -8 0 -15 -6 -15 -14 0 -7 -11 -25 -25 -40 -14
-15 -25 -33 -25 -41 0 -8 -8 -19 -19 -24 -11 -6 -21 -26 -25 -51 -3 -22 -10
-40 -15 -40 -5 0 -14 -14 -21 -31 -20 -46 -6 -351 20 -449 11 -41 20 -87 20
-103 0 -15 9 -35 20 -44 11 -10 20 -30 20 -46 0 -20 6 -30 19 -34 11 -3 22
-16 25 -29 4 -13 13 -24 21 -24 8 0 15 -7 15 -15 0 -9 11 -20 25 -25 14 -5 25
-16 25 -25 0 -8 8 -15 19 -15 10 0 21 -8 24 -19 3 -12 17 -21 40 -25 19 -4 37
-13 40 -20 3 -7 23 -16 46 -20 22 -3 56 -16 76 -27 31 -19 47 -21 146 -17 92
3 112 6 120 21 6 9 20 17 32 17 12 0 36 7 52 16 17 9 42 23 57 31 14 7 29 20
32 28 3 8 12 15 21 15 8 0 15 7 15 16 0 9 9 18 20 21 11 3 20 14 20 25 0 11 8
22 19 25 11 3 21 17 25 36 3 17 13 38 21 47 16 18 35 120 42 231 l4 65 31 -4
c16 -3 32 -11 35 -18 3 -7 20 -16 39 -20 20 -4 34 -12 34 -20 0 -8 11 -19 25
-24 19 -7 25 -17 25 -38 0 -16 9 -37 20 -47 11 -10 20 -26 20 -35 0 -10 9 -37
20 -61 28 -63 28 -214 0 -264 -11 -20 -20 -49 -20 -66 0 -17 -6 -32 -15 -35
-8 -3 -17 -21 -21 -40 -3 -19 -14 -39 -24 -44 -10 -6 -22 -19 -25 -30 -3 -11
-12 -20 -20 -20 -8 0 -17 -9 -20 -20 -3 -11 -15 -20 -26 -20 -12 0 -19 -7 -19
-20 0 -11 -5 -20 -11 -20 -6 0 -24 -11 -41 -25 -16 -14 -38 -25 -49 -25 -12 0
-19 -7 -19 -20 0 -14 -7 -20 -21 -20 -11 0 -33 -8 -47 -19 -15 -10 -42 -22
-60 -26 -18 -4 -36 -13 -39 -21 -3 -7 -21 -16 -41 -20 -21 -4 -45 -13 -54 -21
-9 -8 -36 -17 -60 -20 -24 -2 -59 -12 -78 -22 -19 -10 -61 -23 -92 -30 -32 -7
-58 -16 -58 -20 0 -5 -26 -11 -57 -14 -32 -3 -76 -14 -98 -25 -22 -11 -62 -22
-89 -26 -28 -3 -53 -11 -56 -16 -6 -11 -181 -33 -260 -34 -95 -1 -337 24 -370
37 -19 8 -64 18 -99 21 -35 4 -73 13 -85 21 -11 7 -61 18 -110 24 -49 6 -92
15 -95 20 -3 5 -42 12 -86 16 -44 4 -91 14 -103 22 -13 8 -54 19 -90 25 -37 5
-76 16 -88 23 -11 7 -46 16 -77 20 -32 4 -58 13 -61 21 -3 7 -22 16 -43 19
-21 4 -54 15 -74 26 -20 10 -51 19 -68 19 -20 0 -31 5 -31 14 0 10 -20 19 -57
26 -32 7 -62 18 -68 25 -5 7 -26 16 -47 19 -20 4 -39 13 -42 21 -3 8 -22 17
-43 21 -21 4 -55 16 -75 28 -37 21 -37 21 -53 1 -14 -19 -16 -19 -29 -2 -7 9
-18 17 -24 17 -6 0 -16 18 -22 39 -5 21 -16 41 -24 44 -8 3 -17 19 -21 36 -4
17 -13 38 -21 46 -8 7 -19 38 -24 67 -6 29 -17 68 -26 87 -23 47 -17 235 9
271 9 13 17 39 17 56 0 17 9 43 20 57 11 14 20 33 20 42 0 9 9 19 20 22 11 3
20 9 20 14 0 5 18 17 40 26 22 10 40 23 40 30 0 7 5 13 10 13 6 0 10 7 10 15
0 8 6 15 14 15 8 0 23 10 35 23 45 48 71 83 71 94 0 6 9 15 20 18 11 3 20 13
20 21 0 8 11 19 25 24 14 5 25 16 25 25 0 8 7 15 15 15 9 0 27 11 40 24 13 14
34 27 45 31 11 3 20 10 20 15 0 5 17 12 38 15 20 4 61 15 90 26 30 10 66 19
81 19 14 0 71 12 126 26 74 19 127 26 205 27 101 1 220 -16 220 -32 0 -4 18
-13 41 -20 22 -7 43 -19 46 -27 3 -8 16 -14 30 -14 13 0 34 -11 47 -25 13 -14
28 -25 35 -25 6 0 11 -7 11 -15 0 -17 -4 -18 -49 -9 -17 4 -31 12 -31 19 0 8
-20 14 -52 17 -31 3 -56 12 -63 22 -11 14 -37 16 -184 16 -142 0 -171 -2 -171
-14 0 -10 -16 -17 -45 -22 -25 -3 -45 -12 -45 -19 0 -6 -18 -17 -40 -24 -24
-7 -40 -18 -40 -27 0 -9 -9 -18 -19 -21 -11 -3 -21 -13 -24 -24 -3 -11 -14
-19 -26 -19 -14 0 -21 -6 -21 -20 0 -11 -6 -23 -14 -26 -8 -3 -18 -19 -21 -35
-4 -16 -15 -35 -24 -41 -10 -7 -21 -31 -25 -53 -4 -21 -14 -52 -22 -67 -21
-41 -18 -151 6 -198 11 -22 20 -53 20 -69 0 -20 7 -34 20 -41 11 -6 20 -17 20
-25 0 -7 11 -27 25 -43 14 -17 25 -35 25 -40 0 -6 9 -13 19 -17 11 -3 22 -12
25 -20 3 -8 20 -22 38 -31 18 -9 37 -23 41 -30 4 -8 16 -14 25 -14 9 0 25 -7
36 -15 10 -8 39 -17 65 -20 25 -4 63 -13 84 -21 47 -18 98 -18 141 0 18 7 56
17 84 21 28 4 56 13 63 21 6 8 17 14 25 14 24 0 64 23 64 37 0 7 9 13 21 13
12 0 23 8 26 20 3 11 14 20 24 20 12 0 19 7 19 19 0 11 9 23 20 26 11 3 20 13
20 20 0 8 9 19 20 25 10 6 22 26 26 44 3 20 13 36 23 39 13 3 19 18 24 58 3
30 12 68 21 84 9 17 16 46 16 65 0 53 10 80 30 80 10 0 21 -8 25 -17 14 -36
24 19 24 143 1 97 -2 124 -14 134 -9 7 -15 29 -15 50 0 26 -8 48 -25 68 -14
17 -25 37 -25 45 0 9 -7 22 -15 31 -8 8 -19 26 -25 40 -5 14 -16 26 -25 26 -8
0 -15 7 -15 15 0 19 -137 155 -156 155 -8 0 -14 5 -14 10 0 6 -8 14 -17 17
-10 4 -28 17 -40 30 -12 13 -31 23 -43 23 -11 0 -29 9 -40 20 -11 11 -31 20
-45 20 -14 0 -28 7 -31 15 -4 8 -26 20 -50 26 -24 6 -44 15 -44 19 0 5 -22 16
-49 25 -27 9 -55 23 -61 31 -7 7 -27 14 -45 14 -18 0 -38 6 -44 14 -7 8 -26
17 -42 20 -16 3 -42 9 -59 12 -16 3 -30 12 -30 19 0 8 -19 16 -50 20 -28 4
-56 13 -64 20 -7 7 -34 16 -60 20 -25 4 -63 16 -83 26 -24 12 -58 19 -94 19
-30 0 -78 7 -105 16 -34 10 -119 18 -279 24 -126 4 -239 11 -250 15 -12 3 -27
16 -34 27 -17 27 -6 33 67 42 31 4 60 11 66 15 17 15 60 18 241 20 118 1 188
-3 225 -13z m922 -975 c7 -10 30 -21 51 -25 21 -4 37 -13 37 -20 0 -8 9 -16
20 -19 22 -6 28 -37 7 -37 -8 0 -22 9 -32 20 -10 11 -27 20 -37 20 -22 0 -60
18 -69 33 -4 5 -63 10 -133 11 -112 1 -126 3 -126 18 0 16 14 17 135 17 118 0
136 -2 147 -18z m-309 -36 c1 -6 -13 -11 -30 -13 -37 -4 -45 14 -10 21 29 5
38 4 40 -8z m1627 1 c0 -9 -16 -17 -41 -21 -22 -4 -43 -13 -46 -21 -3 -7 -21
-16 -40 -20 -23 -4 -37 -13 -40 -25 -3 -11 -13 -19 -23 -19 -11 0 -20 -10 -24
-25 -4 -14 -13 -25 -21 -25 -8 0 -15 -7 -15 -16 0 -9 -8 -18 -18 -21 -20 -5
-42 -76 -42 -133 0 -16 -4 -32 -10 -35 -14 -9 -12 -38 5 -71 8 -16 15 -41 15
-57 0 -15 9 -35 20 -44 11 -10 25 -32 31 -50 6 -18 17 -33 25 -33 8 0 14 -7
14 -15 0 -9 10 -19 23 -24 12 -5 31 -18 41 -30 11 -11 28 -21 38 -21 11 0 27
-9 37 -21 16 -20 27 -21 149 -21 118 1 135 3 158 21 15 12 33 21 41 21 8 0 29
11 47 25 18 14 38 25 44 25 7 0 12 7 12 15 0 9 7 18 15 22 9 3 23 20 32 37 9
17 20 34 26 38 6 3 15 21 21 38 17 50 31 41 34 -22 2 -47 -1 -61 -18 -78 -11
-11 -20 -26 -20 -34 0 -8 -9 -17 -19 -21 -11 -3 -23 -15 -26 -26 -4 -10 -13
-19 -20 -19 -8 0 -19 -9 -25 -20 -7 -13 -21 -20 -41 -20 -22 0 -32 -6 -36 -19
-4 -16 -18 -21 -81 -27 -42 -4 -126 -4 -186 0 -91 5 -113 10 -128 26 -11 11
-30 20 -43 20 -13 0 -28 7 -33 16 -5 8 -19 21 -33 28 -13 6 -33 26 -44 43 -11
18 -26 32 -33 33 -7 0 -17 11 -22 25 -5 14 -14 25 -19 25 -5 0 -13 26 -17 57
-4 32 -12 62 -19 68 -31 25 -26 114 7 122 15 5 18 15 18 68 0 47 5 68 20 88
11 14 20 33 20 42 0 9 9 19 20 22 11 3 20 12 20 20 0 8 9 17 19 20 11 3 21 13
24 24 3 12 14 19 30 19 14 0 29 5 32 11 18 29 145 42 145 15z m-1398 -32 c5
-3 8 -11 8 -18 0 -8 8 -16 19 -19 36 -9 35 -111 -2 -134 -7 -4 -16 -16 -20
-25 -5 -14 -18 -18 -55 -18 -67 0 -112 10 -112 25 0 6 -9 22 -20 35 -24 27
-26 63 -5 80 8 7 15 18 15 24 0 16 41 50 70 58 24 6 87 1 102 -8z m1484 -8 c3
-7 22 -19 43 -26 32 -10 39 -19 54 -61 12 -33 15 -54 8 -66 -5 -10 -12 -26
-15 -35 -3 -10 -14 -18 -25 -18 -10 0 -21 -7 -25 -15 -3 -9 -19 -15 -41 -15
-22 0 -38 6 -41 15 -4 8 -12 15 -18 15 -7 0 -24 13 -39 28 -37 39 -36 84 2
123 16 16 34 29 40 29 6 0 15 9 21 20 12 23 28 26 36 6z m-1786 -6 c0 -5 -15
-10 -32 -9 -28 0 -30 2 -13 9 28 12 45 12 45 0z m552 -45 c0 -5 -5 -11 -11
-13 -6 -2 -11 4 -11 13 0 9 5 15 11 13 6 -2 11 -8 11 -13z m-724 -350 c7 -14
12 -32 12 -40 0 -8 6 -15 14 -15 8 0 17 -11 20 -25 4 -14 18 -35 31 -47 14
-12 25 -28 25 -35 0 -7 7 -13 16 -13 9 0 18 -9 21 -20 3 -11 11 -20 17 -20 22
0 66 -25 66 -37 0 -8 13 -13 30 -13 17 0 58 -9 91 -20 l61 -21 54 21 c30 11
65 20 78 20 13 0 29 6 35 14 7 8 27 22 46 31 19 9 35 20 35 24 0 5 9 11 20 14
11 3 20 12 20 20 0 9 9 19 20 22 11 3 20 15 20 25 0 10 8 21 18 24 11 4 22 22
28 44 14 56 29 45 32 -25 3 -54 1 -62 -18 -68 -11 -3 -20 -15 -20 -26 0 -10
-7 -19 -15 -19 -8 0 -15 -4 -15 -9 0 -13 -59 -71 -73 -71 -7 0 -20 -9 -30 -20
-11 -13 -29 -20 -51 -20 -18 0 -45 -9 -59 -20 -22 -17 -40 -20 -131 -20 -93 0
-109 3 -126 20 -12 12 -33 20 -55 20 -22 0 -38 6 -41 14 -3 8 -19 18 -35 21
-18 4 -35 17 -41 31 -6 13 -19 24 -30 24 -10 0 -18 7 -18 15 0 8 -9 19 -20 25
-11 6 -20 20 -20 30 0 11 -9 29 -20 40 -15 15 -20 33 -20 75 0 59 10 70 28 30z
m-23 -1131 c30 -20 204 -64 253 -64 20 0 50 -7 66 -15 15 -8 51 -21 80 -29
143 -41 188 -56 208 -70 12 -9 39 -16 60 -16 38 0 88 -17 88 -30 0 -4 37 -11
82 -15 45 -4 95 -13 111 -21 27 -15 152 -33 252 -38 28 -2 58 -6 68 -11 25
-11 227 1 240 14 6 6 40 11 77 11 104 1 262 17 269 29 4 5 54 13 111 17 58 4
107 10 110 13 17 20 59 31 124 31 92 0 102 4 122 46 9 19 20 31 25 28 15 -9
10 -132 -7 -165 -8 -17 -19 -71 -23 -122 -4 -51 -12 -101 -18 -112 -6 -11 -13
-121 -17 -244 -4 -131 -12 -250 -20 -285 -8 -34 -19 -103 -26 -155 -6 -52 -17
-109 -25 -125 -7 -17 -16 -51 -20 -76 -3 -24 -12 -51 -19 -60 -7 -8 -19 -36
-26 -62 -7 -26 -18 -49 -26 -52 -8 -3 -14 -15 -14 -26 0 -11 -7 -23 -15 -26
-8 -4 -15 -12 -15 -19 0 -7 -11 -20 -25 -29 -14 -9 -25 -22 -25 -29 0 -8 -11
-24 -25 -37 -14 -13 -25 -29 -25 -37 0 -7 -5 -13 -11 -13 -13 0 -63 -50 -71
-72 -4 -9 -20 -19 -37 -23 -17 -4 -36 -15 -41 -26 -8 -13 -21 -19 -45 -19 -28
0 -35 -4 -35 -20 0 -16 -7 -20 -37 -21 -57 -1 -97 -9 -104 -20 -3 -6 -38 -15
-78 -21 -39 -7 -71 -16 -71 -22 0 -6 -5 -4 -10 4 -8 13 -10 13 -10 -1 0 -13
-18 -17 -108 -22 -60 -3 -140 -1 -178 3 -38 5 -90 9 -116 10 -31 0 -48 4 -49
13 0 6 -4 3 -9 -8 -7 -17 -9 -17 -9 -2 -1 13 -10 17 -35 17 -19 0 -38 5 -41
10 -3 6 -22 10 -41 10 -19 0 -34 5 -34 10 0 6 -10 10 -22 11 -13 0 -18 3 -11
6 10 3 10 7 0 18 -9 9 -14 10 -19 1 -5 -7 -8 -5 -8 6 0 13 -15 18 -75 23 -52
5 -75 11 -75 21 0 7 -9 16 -20 19 -11 3 -20 15 -20 26 0 10 -4 19 -10 19 -5 0
-10 16 -10 35 0 21 -6 37 -16 43 -11 6 -18 29 -21 78 -3 38 -11 87 -18 109 -9
27 -13 108 -14 244 -1 195 -12 315 -31 351 -5 9 -12 48 -16 86 -4 38 -15 91
-25 117 -11 26 -19 61 -19 78 0 26 -16 66 -31 79 -3 3 -9 23 -13 44 -4 22 -16
51 -27 64 -10 14 -19 32 -19 41 0 18 -18 41 -32 41 -4 0 -8 -28 -8 -62 0 -35
-3 -73 -6 -84 -7 -25 -39 -42 -74 -40 -14 1 -34 -5 -45 -14 -40 -34 -105 -31
-105 5 0 8 -4 15 -10 15 -5 0 -10 10 -10 23 -1 12 -9 40 -20 62 -11 22 -19 48
-20 57 0 9 -4 28 -10 42 -8 22 -13 24 -34 16 -18 -6 -33 -5 -54 6 -30 14 -42
47 -42 117 0 15 -9 44 -20 64 -11 21 -20 45 -20 54 0 9 -6 21 -13 27 -11 9
-14 40 -8 75 2 12 77 8 108 -5 15 -7 32 -18 36 -25 4 -7 18 -13 31 -13 13 0
33 -9 46 -20 13 -11 31 -20 42 -20 11 0 18 -7 18 -20 0 -13 7 -20 20 -20 11 0
20 -6 20 -14 0 -19 17 -29 35 -22 18 7 8 36 -11 36 -8 0 -18 8 -21 18 -9 22
-58 72 -72 72 -6 0 -11 9 -11 20 0 12 -7 20 -16 20 -9 0 -18 8 -21 19 -2 10
-16 24 -29 30 -14 6 -22 16 -19 21 9 15 63 12 90 -6z m652 -3446 c-3 -7 -5 -2
-5 12 0 14 2 19 5 13 2 -7 2 -19 0 -25z m-884 -60 l-11 -33 -1 45 c-1 33 2 41
11 32 8 -8 8 -20 1 -44z m2148 -78 c11 0 19 -12 24 -36 8 -45 -2 -56 -46 -52
-32 3 -34 5 -37 47 -3 45 13 70 32 51 6 -6 18 -10 27 -10z m-271 -19 c0 -5
-18 -12 -40 -16 -38 -6 -40 -8 -40 -45 0 -20 6 -43 14 -49 17 -14 26 -57 19
-92 -4 -23 -11 -28 -52 -33 -26 -3 -57 -13 -69 -22 -16 -11 -26 -12 -42 -4
-11 6 -20 8 -20 4 0 -3 -6 -2 -12 3 -7 6 -25 13 -39 16 -36 9 -89 62 -95 96
-5 23 -2 30 15 36 27 8 27 35 1 42 -23 6 -29 58 -7 66 22 10 367 7 367 -2z
m-2407 -93 c5 -17 10 -19 34 -12 15 4 52 7 81 7 28 -1 52 3 52 8 0 24 19 5 27
-29 14 -55 9 -62 -55 -63 -31 0 -75 -3 -97 -7 -38 -7 -40 -10 -40 -42 0 -28
-4 -36 -22 -38 -53 -8 -105 64 -84 117 5 14 11 37 13 51 2 19 10 26 33 31 39
7 52 2 58 -23z m662 -10 c32 -38 37 -41 46 -25 15 25 79 24 86 -3 3 -11 12
-20 20 -20 21 0 63 -41 63 -62 0 -14 -8 -18 -39 -18 -25 0 -41 5 -45 15 -8 21
-39 19 -67 -4 -20 -16 -24 -29 -24 -72 0 -52 -1 -54 -30 -59 -27 -5 -30 -9
-33 -48 -3 -33 -7 -42 -22 -42 -30 0 -68 42 -75 84 -4 21 -14 40 -21 43 -17 6
-18 65 -2 81 7 7 15 42 19 79 11 105 60 125 124 51z m728 -19 c17 -27 -15 -68
-47 -62 -31 6 -34 29 -8 61 19 25 40 25 55 1z m-555 -177 c2 -14 11 -22 23
-22 18 0 27 -29 13 -43 -9 -9 -34 4 -34 18 0 8 -9 17 -20 20 -11 3 -20 14 -20
24 0 37 33 40 38 3z"/>
<path d="M5692 6903 c-24 -16 -45 -37 -47 -48 -2 -11 -13 -63 -25 -116 -28
-124 -26 -325 3 -356 9 -11 17 -26 17 -34 0 -22 47 -83 70 -91 11 -4 20 -14
20 -22 0 -17 30 -26 93 -26 42 0 53 5 78 31 16 17 29 35 29 40 0 5 6 12 14 15
8 3 22 31 32 62 9 31 22 63 27 70 14 17 26 230 20 325 -5 62 -10 80 -25 88
-10 5 -18 16 -18 25 0 8 -8 17 -17 21 -10 3 -26 14 -36 25 -15 15 -33 18 -105
18 -79 0 -92 -3 -130 -27z"/>
<path d="M4660 5611 c0 -20 13 -41 26 -41 7 0 16 -16 20 -35 7 -39 20 -53 36
-37 16 16 0 69 -23 75 -11 3 -19 14 -19 26 0 14 -6 21 -20 21 -11 0 -20 -4
-20 -9z"/>
<path d="M4752 5468 c5 -32 28 -35 28 -4 0 17 -5 26 -16 26 -10 0 -14 -7 -12
-22z"/>
</g>
</svg>
