<?xml version="1.0" encoding="utf-8"?>
<!-- Generator: Adobe Illustrator 16.0.0, SVG Export Plug-In . SVG Version: 6.00 Build 0)  -->
<!DOCTYPE svg PUBLIC "-//W3C//DTD SVG 1.1//EN" "http://www.w3.org/Graphics/SVG/1.1/DTD/svg11.dtd">
<svg version="1.1" id="svg2" xmlns:svg="http://www.w3.org/2000/svg"
	 xmlns="http://www.w3.org/2000/svg" xmlns:xlink="http://www.w3.org/1999/xlink" x="0px" y="0px" width="1220px" height="188px"
	 viewBox="0 0 1220 188" enable-background="new 0 0 1220 188" xml:space="preserve">
<g id="g6">
	<g id="g8">
		<g id="g10">
			<path id="path12" fill="#ABADAF" d="M436.177,100.073c0,4.753-0.844,9.227-2.426,13.416c-1.586,4.196-3.82,7.739-6.803,10.814
				c-2.979,3.076-6.521,5.493-10.529,7.171c-4.006,1.684-8.67,2.519-13.979,2.519c-7.64,0-13.512-1.86-17.611-5.499
				c-4.005-3.632-6.056-8.664-6.056-15.094c0-4.474,0.746-8.853,2.232-12.953c1.589-4.006,3.822-7.645,6.803-10.808
				c2.894-3.076,6.431-5.405,10.625-7.176c4.189-1.772,8.854-2.702,14.066-2.702c7.74,0,13.517,1.771,17.611,5.404
				C434.126,88.702,436.177,93.739,436.177,100.073z M467.482,133.809c-3.449,0-6.709-0.468-9.783-1.31
				c-2.98-0.835-5.685-2.233-7.916-4.006c-2.24-1.772-4.012-4.005-5.221-6.708c-1.212-2.702-1.867-5.872-1.867-9.41
				c0-4.568,0.842-8.854,2.612-12.77c1.767-3.912,4.189-7.36,7.359-10.247c3.074-2.892,6.803-5.221,11.277-6.897
				c4.473-1.677,9.313-2.519,14.438-2.519c3.172,0,6.246,0.374,9.322,1.025c3.074,0.747,5.961,1.772,8.574,3.076l-3.449,13.979
				h-2.336c-1.764-2.146-3.814-3.823-6.055-4.849c-2.234-1.025-4.752-1.582-7.64-1.582c-5.125,0-9.227,1.86-12.395,5.499
				c-3.07,3.633-4.658,8.201-4.658,13.694c0,3.821,0.93,6.619,2.891,8.575c1.957,1.867,4.937,2.797,8.941,2.797
				c3.172,0,6.057-0.652,8.67-1.956c2.512-1.304,4.754-2.702,6.613-4.29h2.328l-3.443,13.979c-3.264,1.399-6.15,2.424-8.668,2.981
				C474.658,133.523,471.494,133.809,467.482,133.809z M582.007,133.809c-4.379,0-8.574-0.373-12.676-1.215
				c-4.1-0.835-7.264-1.771-9.408-2.885l3.17-13.422h1.488c0.65,0.562,1.492,1.215,2.518,1.867c1.025,0.746,2.425,1.486,4.38,2.233
				c1.581,0.652,3.448,1.304,5.588,1.772c2.145,0.468,4.379,0.747,6.896,0.747c3.633,0,6.43-0.47,8.203-1.304
				c1.859-0.842,2.795-2.051,2.795-3.64c0-1.208-0.65-2.139-1.961-2.702c-1.303-0.652-4.006-1.486-8.105-2.423
				c-6.985-1.582-11.737-3.537-14.348-5.778c-2.516-2.328-3.82-5.125-3.82-8.567c0-5.688,2.605-10.251,7.732-13.605
				c5.125-3.265,12.113-4.941,20.965-4.941c3.822,0,7.646,0.374,11.467,1.12c3.816,0.835,6.613,1.677,8.386,2.519l-2.98,12.947
				h-1.398c-2.239-1.677-4.848-3.076-7.827-4.101c-3.076-1.025-6.244-1.582-9.408-1.582c-3.545,0-6.248,0.374-8.115,1.215
				c-1.858,0.835-2.789,2.139-2.789,3.911c0,1.305,0.834,2.329,2.424,3.076c1.582,0.652,4.101,1.398,7.638,2.146
				c6.43,1.398,11.088,3.163,13.885,5.31c2.891,2.145,4.283,5.031,4.283,8.854c0,5.777-2.607,10.25-7.82,13.51
				C597.943,132.132,590.861,133.809,582.007,133.809z M643.878,133.809c-3.443,0-6.709-0.468-9.783-1.31
				c-2.979-0.835-5.684-2.233-7.916-4.006c-2.239-1.772-4.008-4.005-5.221-6.708c-1.211-2.702-1.861-5.872-1.861-9.41
				c0-4.568,0.836-8.854,2.607-12.77c1.771-3.912,4.188-7.36,7.358-10.247c3.074-2.892,6.804-5.221,11.277-6.897
				c4.473-1.677,9.322-2.519,14.439-2.519c3.172,0,6.246,0.374,9.321,1.025c3.074,0.747,5.962,1.772,8.574,3.076l-3.449,13.979
				H666.9c-1.771-2.146-3.822-3.823-6.063-4.849c-2.233-1.025-4.746-1.582-7.639-1.582c-5.125,0-9.228,1.86-12.392,5.499
				c-3.073,3.633-4.662,8.201-4.662,13.694c0,3.821,0.937,6.619,2.892,8.575c1.957,1.867,4.936,2.797,8.94,2.797
				c3.173,0,6.063-0.652,8.67-1.956c2.521-1.304,4.755-2.702,6.613-4.29h2.334l-3.449,13.979c-3.264,1.399-6.149,2.424-8.668,2.981
				C651.054,133.523,647.89,133.809,643.878,133.809z M801.455,81.342l-11.834,51.068h-16.49l1.303-5.689
				c-1.588,1.12-3.266,2.146-4.752,2.987c-1.588,0.93-3.073,1.677-4.475,2.233c-1.771,0.746-3.354,1.215-4.752,1.492
				c-1.492,0.279-2.893,0.375-4.379,0.375c-4.476,0-8.019-1.121-10.529-3.266c-2.606-2.139-3.918-5.309-3.918-9.505
				c0-1.114,0.094-2.234,0.189-3.164c0.096-1.024,0.278-2.146,0.557-3.267l7.732-33.267h16.588l-5.867,25.255
				c-0.469,1.956-0.842,3.633-1.023,5.031c-0.278,1.398-0.375,2.607-0.375,3.537c0,2.05,0.47,3.449,1.398,4.386
				c1.025,0.835,2.797,1.304,5.5,1.304c1.391,0,2.885-0.278,4.658-0.842c1.676-0.557,3.535-1.398,5.588-2.513l8.389-36.159h16.492
				V81.342z M865.753,133.809c-8.668,0-15.471-1.961-20.223-5.776c-4.754-3.822-7.082-9.132-7.082-15.935
				c0-4.664,0.746-8.949,2.328-12.865c1.59-3.816,3.823-7.266,6.709-10.157c2.797-2.886,6.243-5.126,10.44-6.803
				c4.188-1.677,8.854-2.512,13.885-2.512c7.543,0,13.32,1.582,17.236,4.658c3.822,3.075,5.777,7.549,5.777,13.605
				c0,2.05-0.189,4.101-0.65,6.056c-0.373,1.955-0.932,3.917-1.59,5.872h-38.107c0,0.184,0,0.373,0,0.557c0,0.096,0,0.278,0,0.469
				c0,3.536,1.209,6.334,3.729,8.289c2.512,1.961,6.332,2.986,11.553,2.986c3.539,0,6.988-0.652,10.158-1.867
				c3.258-1.208,6.055-2.512,8.385-4.006h1.865l-3.074,13.139c-3.17,1.397-6.522,2.519-10.067,3.17
				C873.488,133.436,869.759,133.809,865.753,133.809z M1035.248,127.006c-1.02,0.652-2.227,1.487-3.721,2.424
				c-1.4,0.93-2.797,1.678-4.006,2.234c-1.773,0.747-3.355,1.209-4.849,1.582c-1.494,0.374-3.543,0.562-6.246,0.562
				c-4.188,0-7.731-1.215-10.436-3.543c-2.701-2.424-4.006-5.5-4.006-9.314c0-4.102,0.93-7.461,2.887-10.348
				c1.867-2.797,4.752-5.03,8.479-6.707c3.543-1.588,7.738-2.703,12.58-3.354c4.847-0.747,10.162-1.215,15.847-1.588
				c0-0.185,0.088-0.462,0.188-0.931c0.088-0.373,0.088-0.842,0.088-1.304c0-2.24-0.936-3.727-2.985-4.568
				c-1.949-0.835-4.938-1.304-8.943-1.304c-2.701,0-5.68,0.468-8.947,1.398c-3.258,0.842-5.682,1.582-7.358,2.234h-1.492
				l2.422-12.112c1.867-0.468,4.848-1.025,8.854-1.582c4.009-0.651,8.019-0.93,12.023-0.93c7.924,0,13.885,1.025,17.605,3.164
				c3.733,2.05,5.594,5.315,5.594,9.695c0,0.652-0.088,1.399-0.189,2.417c-0.088,0.937-0.176,1.772-0.367,2.519l-8.012,34.761
				h-16.219L1035.248,127.006z M1125.917,133.809c-8.658,0-15.467-1.961-20.213-5.776c-4.758-3.822-7.088-9.132-7.088-15.935
				c0-4.664,0.748-8.949,2.33-12.865c1.582-3.816,3.819-7.266,6.707-10.157c2.797-2.886,6.239-5.126,10.44-6.803
				c4.189-1.677,8.849-2.512,13.883-2.512c7.545,0,13.328,1.582,17.238,4.658c3.822,3.075,5.771,7.549,5.771,13.605
				c0,2.05-0.179,4.101-0.646,6.056c-0.381,1.955-0.938,3.917-1.582,5.872h-38.121c0,0.184,0,0.373,0,0.557c0,0.096,0,0.278,0,0.469
				c0,3.536,1.216,6.334,3.732,8.289c2.52,1.961,6.342,2.986,11.557,2.986c3.543,0,6.984-0.652,10.148-1.867
				c3.268-1.208,6.062-2.512,8.393-4.006h1.859l-3.074,13.139c-3.164,1.397-6.518,2.519-10.063,3.17
				C1133.65,133.436,1129.929,133.809,1125.917,133.809z M376.534,64.661l-15.649,67.749h-17.522l6.897-29.913h-25.629
				l-6.986,29.913h-17.517l15.649-67.749H333.3l-5.776,24.978h25.718l5.776-24.978H376.534z M555.822,92.897
				c0,0.747-0.097,1.677-0.185,2.796c-0.094,1.209-0.282,2.33-0.562,3.449l-7.734,33.268h-16.487l5.774-25.255
				c0.463-1.956,0.742-3.634,1.027-4.937c0.276-1.303,0.364-2.519,0.364-3.639c0-1.956-0.557-3.449-1.487-4.379
				c-1.023-0.835-2.892-1.303-5.592-1.303c-1.212,0-2.703,0.278-4.476,0.842c-1.678,0.557-3.539,1.392-5.588,2.512l-8.385,36.159
				h-16.498l16.402-70.824h16.491l-5.866,25.439c3.26-2.234,6.336-4.006,9.131-5.214c2.793-1.215,5.866-1.867,9.221-1.867
				c4.57,0,8.201,1.12,10.721,3.354C554.615,85.626,555.822,88.797,555.822,92.897z M732.218,92.897
				c0,0.747-0.096,1.677-0.184,2.796c-0.094,1.209-0.283,2.33-0.563,3.449l-7.733,33.268H707.25l5.775-25.255
				c0.463-1.956,0.741-3.634,1.026-4.937c0.277-1.303,0.371-2.519,0.371-3.639c0-1.956-0.562-3.449-1.494-4.379
				c-1.022-0.835-2.891-1.303-5.592-1.303c-1.211,0-2.703,0.278-4.469,0.842c-1.685,0.557-3.545,1.392-5.594,2.512l-8.386,36.159
				h-16.498l16.402-70.824h16.492l-5.867,25.439c3.26-2.234,6.336-4.006,9.131-5.214c2.797-1.215,5.873-1.867,9.229-1.867
				c4.562,0,8.2,1.12,10.713,3.354C731.011,85.626,732.218,88.797,732.218,92.897z M837.988,61.586l-16.404,70.824h-16.49
				l16.396-70.824H837.988z M994.811,132.41h-17.705l-1.582-13.885H950.83l-7.922,13.885h-18.264l40.538-67.749h20.22
				L994.811,132.41z M1098.15,61.586l-16.402,70.824h-16.492l16.402-70.824H1098.15z M1218.826,92.897
				c0,0.93-0.088,1.867-0.189,2.98c-0.09,1.025-0.278,2.146-0.557,3.266l-7.645,33.268h-16.49l5.682-25.255
				c0.469-1.956,0.746-3.538,1.025-4.847c0.19-1.305,0.381-2.607,0.381-3.729c0-1.956-0.57-3.449-1.494-4.284
				c-1.025-0.93-2.887-1.398-5.506-1.398c-1.305,0-2.785,0.278-4.469,0.842c-1.771,0.557-3.632,1.392-5.783,2.512l-8.289,36.159
				H1159l11.834-51.068h16.492l-1.394,5.683c3.354-2.234,6.431-4.006,9.228-5.214c2.797-1.215,5.873-1.867,9.125-1.867
				c4.568,0,8.201,1.12,10.719,3.354C1217.523,85.443,1218.826,88.702,1218.826,92.897z M1039.626,108.275
				c-2.975,0.277-5.676,0.557-8.289,0.834c-2.606,0.373-4.754,0.842-6.52,1.494c-1.865,0.651-3.354,1.582-4.291,2.797
				c-1.023,1.207-1.486,2.791-1.486,4.841c0,1.771,0.652,2.987,1.957,3.727c1.303,0.658,3.168,1.025,5.682,1.025
				c1.582,0,3.354-0.367,5.222-1.113c1.86-0.747,3.625-1.677,5.221-2.797L1039.626,108.275z M414.926,116.754
				c1.399-2.146,2.425-4.474,3.172-6.993c0.651-2.512,1.024-5.493,1.024-9.131c0-3.076-0.652-5.499-2.05-7.176
				c-1.399-1.677-3.544-2.512-6.524-2.512c-2.329,0-4.38,0.557-6.057,1.677c-1.771,1.121-3.354,2.703-4.657,4.753
				c-1.215,1.955-2.239,4.284-2.892,7.081c-0.747,2.797-1.113,5.683-1.113,8.669c0,3.442,0.739,5.961,2.328,7.455
				c1.582,1.487,3.632,2.233,6.334,2.233c2.051,0,3.917-0.557,5.778-1.582C412.042,120.107,413.624,118.615,414.926,116.754z
				 M974.308,106.408l-2.79-24.136l-13.798,24.136H974.308z M878.33,100.352c0.096-0.557,0.189-1.024,0.189-1.486
				c0.096-0.469,0.096-0.938,0.096-1.398c0-2.424-0.748-4.291-2.242-5.499c-1.486-1.304-3.631-1.956-6.523-1.956
				c-3.354,0-6.239,0.93-8.479,2.702c-2.33,1.86-4.096,4.379-5.311,7.638H878.33L878.33,100.352z M1138.496,100.352
				c0.104-0.557,0.191-1.024,0.191-1.486c0.088-0.469,0.088-0.938,0.088-1.398c0-2.424-0.746-4.291-2.228-5.499
				c-1.494-1.304-3.645-1.956-6.531-1.956c-3.354,0-6.237,0.93-8.479,2.702c-2.326,1.86-4.1,4.379-5.301,7.638H1138.496
				L1138.496,100.352z"/>
		</g>
	</g>
	<path id="path14" fill="#0071BC" d="M120.05,49.863c7.863-4.396,19.5-4.471,26.551-0.188c7.355,4.473,7.424,12.248-0.467,17.404
		c-8.285,5.412-21.506,5.527-28.828,0.24C110.314,62.268,111.822,54.461,120.05,49.863"/>
	<path id="path16" fill="#338DC9" d="M168.929,51.703c5.492-0.039,10.297,2.689,10.752,6.193c0.473,3.627-3.859,6.695-9.695,6.744
		c-5.836,0.047-10.676-2.953-10.797-6.584C159.074,54.539,163.437,51.744,168.929,51.703"/>
	<path id="path18" fill="#66AAD7" d="M194.578,51.553c5.473-0.041,10.604,2.68,11.492,6.176c0.92,3.615-3.016,6.68-8.832,6.727
		c-5.816,0.049-11.012-2.943-11.584-6.566C185.097,54.385,189.101,51.592,194.578,51.553"/>
	<path id="path20" fill="#99C6E4" d="M220.105,51.309c5.449-0.041,10.904,2.672,12.225,6.16c1.363,3.6-2.184,6.65-7.973,6.699
		c-5.791,0.049-11.348-2.936-12.367-6.549C211.001,54.129,214.65,51.348,220.105,51.309"/>
	<path id="path22" fill="#99C6E4" d="M220.105,51.309c5.449-0.041,10.904,2.672,12.225,6.16c1.363,3.6-2.184,6.65-7.973,6.699
		c-5.791,0.049-11.348-2.936-12.367-6.549C211.001,54.129,214.65,51.348,220.105,51.309"/>
	<path id="path24" fill="#99C6E4" d="M220.105,51.309c5.449-0.041,10.904,2.672,12.225,6.16c1.363,3.6-2.184,6.65-7.973,6.699
		c-5.791,0.049-11.348-2.936-12.367-6.549C211.001,54.129,214.65,51.348,220.105,51.309"/>
	<path id="path26" fill="#CCE3F2" d="M245.826,51.123c5.432-0.039,11.211,2.664,12.963,6.141c1.813,3.592-1.344,6.637-7.111,6.684
		c-5.771,0.045-11.68-2.928-13.152-6.527C237.105,53.936,240.394,51.164,245.826,51.123"/>
	<path id="path28" fill="#CCE3F2" d="M245.826,51.123c5.432-0.039,11.211,2.664,12.963,6.141c1.813,3.592-1.344,6.637-7.111,6.684
		c-5.771,0.045-11.68-2.928-13.152-6.527C237.105,53.936,240.394,51.164,245.826,51.123"/>
	<path id="path30" fill="#CCE3F2" d="M245.826,51.123c5.432-0.039,11.211,2.664,12.963,6.141c1.813,3.592-1.344,6.637-7.111,6.684
		c-5.771,0.045-11.68-2.928-13.152-6.527C237.105,53.936,240.394,51.164,245.826,51.123"/>
	<path id="path32" fill="#338DC9" d="M93.386,65.404c-5.904,0.047-9.729-2.98-8.568-6.648c1.119-3.543,6.504-6.363,12.057-6.408
		c5.551-0.035,9.436,2.713,8.662,6.248C104.734,62.256,99.285,65.352,93.386,65.404"/>
	<path id="path34" fill="#66AAD7" d="M65.742,65.588c-5.928,0.049-9.381-2.984-7.756-6.66c1.568-3.557,7.32-6.383,12.893-6.424
		c5.566-0.039,9.119,2.717,7.898,6.26C77.513,62.436,71.662,65.539,65.742,65.588"/>
	<path id="path36" fill="#99C6E4" d="M37.898,65.859c-5.953,0.049-9.033-2.996-6.938-6.684c2.021-3.568,8.148-6.404,13.746-6.443
		c5.586-0.041,8.799,2.723,7.127,6.283C50.105,62.695,43.841,65.813,37.898,65.859"/>
	<path id="path38" fill="#99C6E4" d="M37.898,65.859c-5.953,0.049-9.033-2.996-6.938-6.684c2.021-3.568,8.148-6.404,13.746-6.443
		c5.586-0.041,8.799,2.723,7.127,6.283C50.105,62.695,43.841,65.813,37.898,65.859"/>
	<path id="path40" fill="#99C6E4" d="M37.898,65.859c-5.953,0.049-9.033-2.996-6.938-6.684c2.021-3.568,8.148-6.404,13.746-6.443
		c5.586-0.041,8.799,2.723,7.127,6.283C50.105,62.695,43.841,65.813,37.898,65.859"/>
	<path id="path42" fill="#CCE3F2" d="M9.722,66.088c-5.973,0.053-8.672-3.004-6.102-6.703c2.484-3.576,8.992-6.42,14.609-6.461
		c5.607-0.039,8.477,2.732,6.348,6.301C22.375,62.916,15.693,66.039,9.722,66.088"/>
	<path id="path44" fill="#CCE3F2" d="M9.722,66.088c-5.973,0.053-8.672-3.004-6.102-6.703c2.484-3.576,8.992-6.42,14.609-6.461
		c5.607-0.039,8.477,2.732,6.348,6.301C22.375,62.916,15.693,66.039,9.722,66.088"/>
	<path id="path46" fill="#CCE3F2" d="M9.722,66.088c-5.973,0.053-8.672-3.004-6.102-6.703c2.484-3.576,8.992-6.42,14.609-6.461
		c5.607-0.039,8.477,2.732,6.348,6.301C22.375,62.916,15.693,66.039,9.722,66.088"/>
	<path id="path48" fill="#338DC9" d="M151.365,38.955c3.617-2.092,9.465-2.127,13.201-0.084c3.82,2.09,4.111,5.613,0.512,7.877
		c-3.688,2.32-9.912,2.359-13.744,0.096C147.585,44.629,147.666,41.096,151.365,38.955"/>
	<path id="path50" fill="#66AAD7" d="M167.662,29.564c3.271-1.893,8.832-1.924,12.539-0.068c3.789,1.889,4.336,5.072,1.088,7.111
		c-3.314,2.084-9.207,2.121-13.023,0.08C164.533,34.688,164.322,31.5,167.662,29.564"/>
	<path id="path52" fill="#99C6E4" d="M182.322,21.008c2.977-1.721,8.268-1.748,11.938-0.064c3.74,1.721,4.492,4.605,1.553,6.453
		c-3.004,1.883-8.6,1.916-12.377,0.068C179.734,25.652,179.289,22.76,182.322,21.008"/>
	<path id="path54" fill="#99C6E4" d="M182.322,21.008c2.977-1.721,8.268-1.748,11.938-0.064c3.74,1.721,4.492,4.605,1.553,6.453
		c-3.004,1.883-8.6,1.916-12.377,0.068C179.734,25.652,179.289,22.76,182.322,21.008"/>
	<path id="path56" fill="#99C6E4" d="M182.322,21.008c2.977-1.721,8.268-1.748,11.938-0.064c3.74,1.721,4.492,4.605,1.553,6.453
		c-3.004,1.883-8.6,1.916-12.377,0.068C179.734,25.652,179.289,22.76,182.322,21.008"/>
	<path id="path58" fill="#CCE3F2" d="M195.875,13.168c2.711-1.564,7.76-1.588,11.383-0.053c3.691,1.568,4.607,4.197,1.936,5.877
		c-2.723,1.711-8.051,1.736-11.783,0.057C193.75,17.4,193.109,14.768,195.875,13.168"/>
	<path id="path60" fill="#CCE3F2" d="M195.875,13.168c2.711-1.564,7.76-1.588,11.383-0.053c3.691,1.568,4.607,4.197,1.936,5.877
		c-2.723,1.711-8.051,1.736-11.783,0.057C193.75,17.4,193.109,14.768,195.875,13.168"/>
	<path id="path62" fill="#CCE3F2" d="M195.875,13.168c2.711-1.564,7.76-1.588,11.383-0.053c3.691,1.568,4.607,4.197,1.936,5.877
		c-2.723,1.711-8.051,1.736-11.783,0.057C193.75,17.4,193.109,14.768,195.875,13.168"/>
	<path id="path64" fill="#338DC9" d="M109.234,82.035c-5.121,3.221-12.496,3.289-16.252,0.148c-3.66-3.055-2.354-7.912,2.711-10.844
		c4.936-2.855,11.789-2.916,15.504-0.133C115.001,74.061,114.214,78.9,109.234,82.035"/>
	<path id="path66" fill="#66AAD7" d="M83.97,97.859c-5.842,3.672-13.736,3.756-17.381,0.18c-3.539-3.479-1.568-8.994,4.176-12.318
		c5.588-3.236,12.893-3.305,16.527-0.16C91.029,88.793,89.646,94.293,83.97,97.859"/>
	<path id="path68" fill="#99C6E4" d="M55.082,116.111c-6.732,4.231-15.232,4.336-18.691,0.221c-3.355-4-0.533-10.324,6.039-14.133
		c6.385-3.695,14.199-3.775,17.709-0.188C63.75,105.703,61.605,112.008,55.082,116.111"/>
	<path id="path70" fill="#99C6E4" d="M55.082,116.111c-6.732,4.231-15.232,4.336-18.691,0.221c-3.355-4-0.533-10.324,6.039-14.133
		c6.385-3.695,14.199-3.775,17.709-0.188C63.75,105.703,61.605,112.008,55.082,116.111"/>
	<path id="path72" fill="#99C6E4" d="M55.082,116.111c-6.732,4.231-15.232,4.336-18.691,0.221c-3.355-4-0.533-10.324,6.039-14.133
		c6.385-3.695,14.199-3.775,17.709-0.188C63.75,105.703,61.605,112.008,55.082,116.111"/>
	<path id="path74" fill="#CCE3F2" d="M21.265,137.375c-7.852,4.941-17.059,5.061-20.223,0.266
		c-3.061-4.645,0.871-11.979,8.479-16.385c7.369-4.268,15.775-4.363,19.076-0.229C31.998,125.293,28.861,132.6,21.265,137.375"/>
	<path id="path76" fill="#CCE3F2" d="M21.265,137.375c-7.852,4.941-17.059,5.061-20.223,0.266
		c-3.061-4.645,0.871-11.979,8.479-16.385c7.369-4.268,15.775-4.363,19.076-0.229C31.998,125.293,28.861,132.6,21.265,137.375"/>
	<path id="path78" fill="#CCE3F2" d="M21.265,137.375c-7.852,4.941-17.059,5.061-20.223,0.266
		c-3.061-4.645,0.871-11.979,8.479-16.385c7.369-4.268,15.775-4.363,19.076-0.229C31.998,125.293,28.861,132.6,21.265,137.375"/>
	<path id="path80" fill="#338DC9" d="M124.986,37.309c0.404-2.869,4.771-5.152,9.76-5.186c4.988-0.027,8.928,2.209,8.801,5.072
		c-0.133,2.953-4.508,5.441-9.777,5.473C128.498,42.703,124.57,40.268,124.986,37.309"/>
	<path id="path82" fill="#66AAD7" d="M126.83,24.592c0.355-2.504,4.42-4.5,9.088-4.523c4.66-0.023,8.352,1.932,8.24,4.432
		c-0.111,2.572-4.184,4.732-9.096,4.76C130.15,29.289,126.47,27.168,126.83,24.592"/>
	<path id="path84" fill="#99C6E4" d="M128.333,13.451c0.309-2.203,4.111-3.963,8.496-3.979c4.381-0.021,7.848,1.703,7.748,3.902
		c-0.1,2.262-3.904,4.156-8.5,4.178C131.478,17.576,128.013,15.713,128.333,13.451"/>
	<path id="path86" fill="#99C6E4" d="M128.333,13.451c0.309-2.203,4.111-3.963,8.496-3.979c4.381-0.021,7.848,1.703,7.748,3.902
		c-0.1,2.262-3.904,4.156-8.5,4.178C131.478,17.576,128.013,15.713,128.333,13.451"/>
	<path id="path88" fill="#99C6E4" d="M128.333,13.451c0.309-2.203,4.111-3.963,8.496-3.979c4.381-0.021,7.848,1.703,7.748,3.902
		c-0.1,2.262-3.904,4.156-8.5,4.178C131.478,17.576,128.013,15.713,128.333,13.451"/>
	<path id="path90" fill="#CCE3F2" d="M129.738,3.523c0.275-1.951,3.844-3.512,7.973-3.523c4.127-0.016,7.398,1.516,7.311,3.465
		c-0.088,2-3.66,3.672-7.975,3.688C132.726,7.172,129.453,5.523,129.738,3.523"/>
	<path id="path92" fill="#CCE3F2" d="M129.738,3.523c0.275-1.951,3.844-3.512,7.973-3.523c4.127-0.016,7.398,1.516,7.311,3.465
		c-0.088,2-3.66,3.672-7.975,3.688C132.726,7.172,129.453,5.523,129.738,3.523"/>
	<path id="path94" fill="#CCE3F2" d="M129.738,3.523c0.275-1.951,3.844-3.512,7.973-3.523c4.127-0.016,7.398,1.516,7.311,3.465
		c-0.088,2-3.66,3.672-7.975,3.688C132.726,7.172,129.453,5.523,129.738,3.523"/>
	<path id="path96" fill="#338DC9" d="M141.681,84.484c-0.199,4.607-5.729,8.527-12.348,8.596c-6.623,0.064-11.451-3.76-10.805-8.377
		c0.625-4.447,6.129-7.979,12.313-8.031C137.021,76.615,141.875,80.049,141.681,84.484"/>
	<path id="path98" fill="#66AAD7" d="M140.601,107.676c-0.244,5.557-6.348,10.309-13.635,10.393
		c-7.297,0.084-12.557-4.536-11.773-10.106c0.752-5.35,6.828-9.58,13.592-9.647C135.546,98.24,140.837,102.348,140.601,107.676"/>
	<path id="path100" fill="#99C6E4" d="M139.466,135.947c-0.297,6.836-7.117,12.709-15.225,12.82
		c-8.121,0.116-13.896-5.597-12.932-12.451c0.916-6.549,7.691-11.722,15.16-11.813C133.929,124.412,139.75,129.42,139.466,135.947"
		/>
	<path id="path102" fill="#99C6E4" d="M139.466,135.947c-0.297,6.836-7.117,12.709-15.225,12.82
		c-8.121,0.116-13.896-5.597-12.932-12.451c0.916-6.549,7.691-11.722,15.16-11.813C133.929,124.412,139.75,129.42,139.466,135.947"
		/>
	<path id="path104" fill="#99C6E4" d="M139.466,135.947c-0.297,6.836-7.117,12.709-15.225,12.82
		c-8.121,0.116-13.896-5.597-12.932-12.451c0.916-6.549,7.691-11.722,15.16-11.813C133.929,124.412,139.75,129.42,139.466,135.947"
		/>
	<path id="path106" fill="#CCE3F2" d="M137.925,171.363c-0.375,8.629-8.104,16.092-17.256,16.244
		c-9.164,0.155-15.564-7.088-14.348-15.752c1.152-8.224,8.816-14.695,17.156-14.816C131.81,156.92,138.281,163.168,137.925,171.363"
		/>
	<path id="path108" fill="#CCE3F2" d="M137.925,171.363c-0.375,8.629-8.104,16.092-17.256,16.244
		c-9.164,0.155-15.564-7.088-14.348-15.752c1.152-8.224,8.816-14.695,17.156-14.816C131.81,156.92,138.281,163.168,137.925,171.363"
		/>
	<path id="path110" fill="#CCE3F2" d="M137.925,171.363c-0.375,8.629-8.104,16.092-17.256,16.244
		c-9.164,0.155-15.564-7.088-14.348-15.752c1.152-8.224,8.816-14.695,17.156-14.816C131.81,156.92,138.281,163.168,137.925,171.363"
		/>
	<path id="path112" fill="#338DC9" d="M101.566,47.268c-3.225-2.229-2.264-5.779,1.984-7.932c4.16-2.104,10.047-2.141,13.299-0.084
		c3.32,2.1,2.744,5.645-1.439,7.92C111.125,49.504,104.853,49.549,101.566,47.268"/>
	<path id="path114" fill="#66AAD7" d="M87.128,37.225c-2.91-2.021-1.76-5.232,2.438-7.186c4.107-1.906,9.727-1.936,12.68-0.07
		c3.012,1.906,2.207,5.115-1.939,7.172C96.07,39.244,90.105,39.279,87.128,37.225"/>
	<path id="path116" fill="#99C6E4" d="M73.945,28.145c-2.648-1.832-1.34-4.756,2.797-6.533c4.053-1.736,9.424-1.764,12.119-0.06
		c2.744,1.734,1.752,4.654-2.344,6.523C82.333,29.984,76.646,30.016,73.945,28.145"/>
	<path id="path118" fill="#99C6E4" d="M73.945,28.145c-2.648-1.832-1.34-4.756,2.797-6.533c4.053-1.736,9.424-1.764,12.119-0.06
		c2.744,1.734,1.752,4.654-2.344,6.523C82.333,29.984,76.646,30.016,73.945,28.145"/>
	<path id="path120" fill="#99C6E4" d="M73.945,28.145c-2.648-1.832-1.34-4.756,2.797-6.533c4.053-1.736,9.424-1.764,12.119-0.06
		c2.744,1.734,1.752,4.654-2.344,6.523C82.333,29.984,76.646,30.016,73.945,28.145"/>
	<path id="path122" fill="#CCE3F2" d="M61.878,19.787c-2.418-1.672-0.98-4.34,3.088-5.959c3.99-1.592,9.135-1.611,11.604-0.053
		c2.508,1.588,1.363,4.252-2.676,5.953C69.773,21.465,64.337,21.492,61.878,19.787"/>
	<path id="path124" fill="#CCE3F2" d="M61.878,19.787c-2.418-1.672-0.98-4.34,3.088-5.959c3.99-1.592,9.135-1.611,11.604-0.053
		c2.508,1.588,1.363,4.252-2.676,5.953C69.773,21.465,64.337,21.492,61.878,19.787"/>
	<path id="path126" fill="#CCE3F2" d="M61.878,19.787c-2.418-1.672-0.98-4.34,3.088-5.959c3.99-1.592,9.135-1.611,11.604-0.053
		c2.508,1.588,1.363,4.252-2.676,5.953C69.773,21.465,64.337,21.492,61.878,19.787"/>
	<path id="path128" fill="#338DC9" d="M166.769,70.619c4.48,2.832,4.885,7.641,0.701,10.748c-4.297,3.197-11.609,3.266-16.109,0.152
		c-4.387-3.035-4.283-7.859,0.033-10.771C155.597,67.912,162.398,67.855,166.769,70.619"/>
	<path id="path130" fill="#66AAD7" d="M188.693,84.531c5.049,3.193,5.984,8.625,1.861,12.152c-4.24,3.625-12.018,3.709-17.117,0.176
		c-4.967-3.437-5.328-8.887-1.035-12.172C176.578,81.492,183.773,81.424,188.693,84.531"/>
	<path id="path132" fill="#99C6E4" d="M213.634,100.221c5.73,3.619,7.348,9.807,3.344,13.832c-4.125,4.15-12.424,4.252-18.256,0.211
		c-5.668-3.92-6.629-10.123-2.408-13.858C200.414,96.775,208.058,96.695,213.634,100.221"/>
	<path id="path134" fill="#99C6E4" d="M213.634,100.221c5.73,3.619,7.348,9.807,3.344,13.832c-4.125,4.15-12.424,4.252-18.256,0.211
		c-5.668-3.92-6.629-10.123-2.408-13.858C200.414,96.775,208.058,96.695,213.634,100.221"/>
	<path id="path136" fill="#99C6E4" d="M213.634,100.221c5.73,3.619,7.348,9.807,3.344,13.832c-4.125,4.15-12.424,4.252-18.256,0.211
		c-5.668-3.92-6.629-10.123-2.408-13.858C200.414,96.775,208.058,96.695,213.634,100.221"/>
	<path id="path138" fill="#CCE3F2" d="M242.238,118.293c6.576,4.154,9.061,11.275,5.264,15.924
		c-3.924,4.799-12.832,4.92-19.58,0.252c-6.535-4.521-8.275-11.664-4.188-15.957C227.693,114.355,235.853,114.26,242.238,118.293"/>
	<path id="path140" fill="#CCE3F2" d="M242.238,118.293c6.576,4.154,9.061,11.275,5.264,15.924
		c-3.924,4.799-12.832,4.92-19.58,0.252c-6.535-4.521-8.275-11.664-4.188-15.957C227.693,114.355,235.853,114.26,242.238,118.293"/>
	<path id="path142" fill="#CCE3F2" d="M242.238,118.293c6.576,4.154,9.061,11.275,5.264,15.924
		c-3.924,4.799-12.832,4.92-19.58,0.252c-6.535-4.521-8.275-11.664-4.188-15.957C227.693,114.355,235.853,114.26,242.238,118.293"/>
</g>
</svg>
