<?xml version="1.0" encoding="UTF-8"?>
<svg width="23px" height="25px" viewBox="0 0 23 25" version="1.1" xmlns="http://www.w3.org/2000/svg" xmlns:xlink="http://www.w3.org/1999/xlink">
    <!-- Generator: Sketch 50.2 (55047) - http://www.bohemiancoding.com/sketch -->
    <title>today</title>
    <desc>Created with Sketch.</desc>
    <defs></defs>
    <g id="UI/Home" stroke="none" stroke-width="1" fill="none" fill-rule="evenodd">
        <g id="ENTRY/UIHOME" transform="translate(-363.000000, -174.000000)" fill="#FFFFFF">
            <g id="Group-2" transform="translate(363.000000, 167.000000)">
                <path d="M4.9343317,18.1457845 L11.1457845,18.1457845 L11.1457845,24.3572374 L4.9343317,24.3572374 L4.9343317,18.1457845 Z M19.7953778,29.2915691 L19.7953778,15.7076442 L2.49619133,15.7076442 L2.49619133,29.2915691 L19.7953778,29.2915691 Z M19.7953778,9.49619133 C20.4532919,9.49619133 21.0337957,9.74774298 21.5369066,10.2508538 C22.0400174,10.7539647 22.2915691,11.3344685 22.2915691,11.9923827 L22.2915691,29.2915691 C22.2915691,29.9494833 22.0400174,30.5299871 21.5369066,31.0330979 C21.0337957,31.5362088 20.4532919,31.7877604 19.7953778,31.7877604 L2.49619133,31.7877604 C1.79957631,31.7877604 1.20939744,31.5362088 0.725637015,31.0330979 C0.241876586,30.5299871 0,29.9494833 0,29.2915691 L0,11.9923827 C0,11.3344685 0.241876586,10.7539647 0.725637015,10.2508538 C1.20939744,9.74774298 1.79957631,9.49619133 2.49619133,9.49619133 L3.71526151,9.49619133 L3.71526151,7 L6.21145284,7 L6.21145284,9.49619133 L16.0801162,9.49619133 L16.0801162,7 L18.5763076,7 L18.5763076,9.49619133 L19.7953778,9.49619133 Z" id="today"></path>
            </g>
        </g>
    </g>
</svg>