<?xml version="1.0" encoding="UTF-8"?>
<svg width="290px" height="290px" viewBox="0 0 290 290" version="1.1" xmlns="http://www.w3.org/2000/svg" xmlns:xlink="http://www.w3.org/1999/xlink">
    <!-- Generator: Sketch 50.2 (55047) - http://www.bohemiancoding.com/sketch -->
    <title>Group</title>
    <desc>Created with Sketch.</desc>
    <defs></defs>
    <g id="UI_2" stroke="none" stroke-width="1" fill="none" fill-rule="evenodd" stroke-linecap="round">
        <g id="Artboard" transform="translate(-106.000000, -73.000000)">
            <g id="Group-2-Copy" transform="translate(64.000000, 31.000000)">
                <g id="Group" transform="translate(187.000000, 186.156034) rotate(-292.000000) translate(-187.000000, -186.156034) translate(44.000000, 43.156034)">
                    <path d="M214.35602,19.4077487 L207.016543,32.1200945 M266.592251,71.6439804 L253.879905,78.9834567 M266.592251,214.35602 L253.879905,207.016543 M214.35602,266.592251 L207.016543,253.879905 M71.6439804,266.592251 L78.9834567,253.879905 M19.4077487,214.35602 L32.1200945,207.016543 M19.4077487,71.6439804 L32.1200945,78.9834567 M71.6439804,19.4077487 L78.9834567,32.1200945" id="Line-2" stroke="#FFFFFF" stroke-width="5"></path>
                    <path d="M158.468364,1.08553351 L157.613029,9.22350302 M173.272731,3.4303149 L171.571432,11.4342969 M187.750901,7.30972907 L185.222279,15.0920303 M201.74425,12.6812724 L198.416007,20.1566282 M227.670216,27.6496359 L222.86049,34.2696567 M239.318784,37.0824597 L233.843425,43.163462 M249.91754,47.6812164 L243.836538,53.1565754 M259.350364,59.3297836 L252.730343,64.1395103 M274.318728,85.2557499 L266.843372,88.5839927 M279.690271,99.2490985 L271.90797,101.777721 M283.569685,113.727269 L275.565703,115.428568 M285.914466,128.531636 L277.776497,129.386971 M285.914466,158.468364 L277.776497,157.613029 M283.569685,173.272731 L275.565703,171.571432 M279.690271,187.750901 L271.90797,185.222279 M274.318728,201.74425 L266.843372,198.416007 M259.350364,227.670216 L252.730343,222.86049 M249.91754,239.318784 L243.836538,233.843425 M239.318784,249.91754 L233.843425,243.836538 M227.670216,259.350364 L222.86049,252.730343 M201.74425,274.318728 L198.416007,266.843372 M187.750901,279.690271 L185.222279,271.90797 M173.272731,283.569685 L171.571432,275.565703 M158.468364,285.914466 L157.613029,277.776497 M128.531636,285.914466 L129.386971,277.776497 M113.727269,283.569685 L115.428568,275.565703 M99.2490985,279.690271 L101.777721,271.90797 M85.2557499,274.318728 L88.5839927,266.843372 M59.3297836,259.350364 L64.1395103,252.730343 M47.6812164,249.91754 L53.1565754,243.836538 M37.0824597,239.318784 L43.163462,233.843425 M27.6496359,227.670216 L34.2696567,222.86049 M12.6812724,201.74425 L20.1566282,198.416007 M7.30972907,187.750901 L15.0920303,185.222279 M3.4303149,173.272731 L11.4342969,171.571432 M1.08553351,158.468364 L9.22350302,157.613029 M1.08553351,128.531636 L9.22350302,129.386971 M3.4303149,113.727269 L11.4342969,115.428568 M7.30972907,99.2490985 L15.0920303,101.777721 M12.6812724,85.2557499 L20.1566282,88.5839927 M27.6496359,59.3297836 L34.2696567,64.1395103 M37.0824597,47.6812164 L43.163462,53.1565754 M47.6812164,37.0824597 L53.1565754,43.163462 M59.3297836,27.6496359 L64.1395103,34.2696567 M85.2557499,12.6812724 L88.5839927,20.1566282 M99.2490985,7.30972907 L101.777721,15.0920303 M113.727269,3.4303149 L115.428568,11.4342969 M128.531636,1.08553351 L129.386971,9.22350302" id="Line-3" stroke="#696C8C" stroke-width="3"></path>
                    <path d="M139.817143,0 L139.817143,28.6 M147.817143,0 L147.817143,28.6 M286,143 L257.4,143 M143,286 L143,257.4 M-3.56772435e-14,143 L28.6,143" id="Line" stroke="#FFFFFF" stroke-width="5"></path>
                </g>
            </g>
        </g>
    </g>
</svg>