<?xml version="1.0" encoding="UTF-8"?>
<svg width="23px" height="28px" viewBox="0 0 23 28" version="1.1" xmlns="http://www.w3.org/2000/svg" xmlns:xlink="http://www.w3.org/1999/xlink">
    <!-- Generator: Sketch 50.2 (55047) - http://www.bohemiancoding.com/sketch -->
    <title>cake</title>
    <desc>Created with Sketch.</desc>
    <defs></defs>
    <g id="UI/Home" stroke="none" stroke-width="1" fill="none" fill-rule="evenodd">
        <g id="ENTRY/UIHOME" transform="translate(-363.000000, -257.000000)" fill="#FFFFFF">
            <g id="Group-3" transform="translate(363.000000, 253.000000)">
                <path d="M18.7553305,15.2531983 C19.7712493,15.2531983 20.6503966,15.6243938 21.3927988,16.366796 C22.1352011,17.1091983 22.5063966,17.9883456 22.5063966,19.0042644 L22.5063966,20.9384078 C22.5063966,21.6026625 22.262189,22.1789924 21.7737665,22.6674149 C21.285344,23.1558374 20.7090141,23.400045 20.0447595,23.400045 C19.3805049,23.400045 18.8139432,23.1656057 18.3450576,22.6967201 L15.6489789,20.0006413 L12.9529001,22.6967201 C12.4840145,23.1656057 11.9076846,23.400045 11.2238931,23.400045 C10.5401016,23.400045 9.96377167,23.1656057 9.49488606,22.6967201 L6.85741771,20.0006413 L4.16133895,22.6967201 C3.69245335,23.1656057 3.12589174,23.400045 2.46163713,23.400045 C1.79738252,23.400045 1.2210526,23.1558374 0.732630097,22.6674149 C0.24420759,22.1789924 0,21.6026625 0,20.9384078 L0,19.0042644 C0,17.9883456 0.371195537,17.1091983 1.11359775,16.366796 C1.85599996,15.6243938 2.73514728,15.2531983 3.7510661,15.2531983 L10.0223797,15.2531983 L10.0223797,12.7329508 L12.4840169,12.7329508 L12.4840169,15.2531983 L18.7553305,15.2531983 Z M16.9970183,23.9861491 C17.8566419,24.8457727 18.8725454,25.275578 20.0447595,25.275578 C20.9043831,25.275578 21.7249206,25.0216021 22.5063966,24.5136427 L22.5063966,30.2574627 C22.5063966,30.6091269 22.3891769,30.902176 22.1547341,31.1366188 C21.9202913,31.3710616 21.6272422,31.4882813 21.275578,31.4882813 L1.23081856,31.4882813 C0.879154358,31.4882813 0.58610525,31.3710616 0.351662447,31.1366188 C0.117219643,30.902176 0,30.6091269 0,30.2574627 L0,24.5136427 C0.742402211,25.0216021 1.56293971,25.275578 2.46163713,25.275578 C3.63385114,25.275578 4.64975472,24.8457727 5.50937833,23.9861491 L6.85741771,22.6381097 L8.20545709,23.9861491 C9.0260069,24.8066989 10.0419105,25.2169676 11.2531983,25.2169676 C12.4644861,25.2169676 13.4803897,24.8066989 14.3009395,23.9861491 L15.6489789,22.6381097 L16.9970183,23.9861491 Z M11.2531983,11.5021322 C10.5889437,11.5021322 10.0028455,11.2481563 9.49488606,10.7401969 C8.98692665,10.2322375 8.73295076,9.64613927 8.73295076,8.98188466 C8.73295076,8.55207286 8.86970701,8.1222675 9.14322361,7.69245569 L11.2531983,4 L13.363173,7.69245569 C13.6366896,8.1222675 13.7734458,8.55207286 13.7734458,8.98188466 C13.7734458,9.64613927 13.5292382,10.2322375 13.0408157,10.7401969 C12.5523932,11.2481563 11.9565267,11.5021322 11.2531983,11.5021322 Z" id="cake"></path>
            </g>
        </g>
    </g>
</svg>