<?xml version="1.0" encoding="UTF-8"?>
<svg width="39px" height="39px" viewBox="0 0 39 39" version="1.1" xmlns="http://www.w3.org/2000/svg" xmlns:xlink="http://www.w3.org/1999/xlink">
    <!-- Generator: Sketch 50.2 (55047) - http://www.bohemiancoding.com/sketch -->
    <title>Artboard</title>
    <desc>Created with Sketch.</desc>
    <defs></defs>
    <g id="Artboard" stroke="none" stroke-width="1" fill="none" fill-rule="evenodd">
        <g id="cloudyIcon" transform="translate(0.000000, 3.000000)" fill="#FFFFFF" fill-rule="nonzero">
            <path d="M20.9679391,21.5493078 C22.3556546,21.650848 23.5402721,22.2177721 24.521827,23.2500971 C25.5033819,24.2824221 25.994152,25.5093473 25.994152,26.9309096 C25.994152,28.4201654 25.4610742,29.6978599 24.3949025,30.7640317 C23.3287307,31.8302034 22.0510362,32.3632812 20.5617804,32.3632812 L6.49853801,32.3632812 C4.70466178,32.3632812 3.17312061,31.7286647 1.90386856,30.4594127 C0.634616506,29.1901606 0,27.6586195 0,25.8647432 C0,24.2062539 0.558462526,22.7593283 1.67540433,21.5239229 C2.79234614,20.2885176 4.16311779,19.5862087 5.78776042,19.4169751 C6.49854157,18.0969529 7.49700487,17.0307972 8.78318028,16.2184759 C10.0693557,15.4061546 11.4739736,15 12.997076,15 C14.9601859,15 16.6863428,15.6176934 18.1755985,16.8530987 C19.6648542,18.0885041 20.5956251,19.6538914 20.9679391,21.5493078 Z" id="cloud"></path>
            <path d="M23.9335938,13.5 L25.2695312,12.1289062 L26.3242188,13.1835938 L24.9882812,14.5546875 L23.9335938,13.5 Z M29.5234375,16.4179688 L29.5234375,14.203125 L31,14.203125 L31,16.4179688 L29.5234375,16.4179688 Z M27.0625,5.02734375 C27.9531295,4.1367143 29.019525,3.69140625 30.2617188,3.69140625 C31.5039125,3.69140625 32.5644487,4.13085498 33.4433594,5.00976562 C34.32227,5.88867627 34.7617188,6.94921254 34.7617188,8.19140625 C34.7617188,9.43359996 34.32227,10.4941362 33.4433594,11.3730469 C32.5644487,12.2519575 31.5039125,12.6914062 30.2617188,12.6914062 C29.019525,12.6914062 27.9589888,12.2519575 27.0800781,11.3730469 C26.2011675,10.4941362 25.7617188,9.43359996 25.7617188,8.19140625 C25.7617188,6.94921254 26.1953082,5.89453559 27.0625,5.02734375 Z M36.2734375,7.453125 L38.5234375,7.453125 L38.5234375,8.96484375 L36.2734375,8.96484375 L36.2734375,7.453125 Z M34.1992188,13.1835938 L35.2539062,12.1640625 L36.5898438,13.5 L35.5351562,14.5546875 L34.1992188,13.1835938 Z M36.5898438,2.91796875 L35.2539062,4.25390625 L34.1992188,3.19921875 L35.5351562,1.86328125 L36.5898438,2.91796875 Z M31,0 L31,2.21484375 L29.5234375,2.21484375 L29.5234375,0 L31,0 Z M24.25,7.453125 L24.25,8.96484375 L22,8.96484375 L22,7.453125 L24.25,7.453125 Z M26.3242188,3.19921875 L25.2695312,4.25390625 L23.9335938,2.91796875 L24.9882812,1.86328125 L26.3242188,3.19921875 Z" id="wb_sunny"></path>
        </g>
    </g>
</svg>